<?xml version="1.0" encoding="utf-8"?>
<!-- Generator: Adobe Illustrator 23.1.0, SVG Export Plug-In . SVG Version: 6.00 Build 0)  -->
<svg version="1.1" id="Layer_1" xmlns="http://www.w3.org/2000/svg" xmlns:xlink="http://www.w3.org/1999/xlink" x="0px" y="0px"
	 viewBox="0 0 197.8 62.5" style="enable-background:new 0 0 197.8 62.5;" xml:space="preserve">
<style type="text/css">
	.st0{fill:#FFFFFF;}
	.st1{opacity:0.9;}
</style>
<g>
	<path d="M190.3,62.5H7.5C3.4,62.5,0,59.1,0,55V7.5C0,3.4,3.4,0,7.5,0h182.8c4.1,0,7.5,3.4,7.5,7.5V55
		C197.8,59.1,194.4,62.5,190.3,62.5z"/>
	<path class="st0" d="M44.5,22.8c0,0-11,7.5,0,18.8c0,0-1.3,8-6.5,10.3c0,0-4.3,1.8-6.7-2.1c0,0-3.8-2.8-7.3,1.9c0,0-3.6,2-7.6-3.8
		c0,0-10.9-12.6-3.3-25.1c0,0,6.6-8.3,13.1-1.5c0,0,1.3,1.1,3.5-0.1C29.7,21.1,37.5,14.4,44.5,22.8z"/>
	<path class="st0" d="M27.4,18.2c0,0-1.2-4.8,5.1-9c0,0,6.2-3.1,3.1,3.6C35.6,12.8,31.4,20,27.4,18.2z"/>
	<g>
		<path class="st0" d="M75,46h-4.2L69.1,42h-7.7L59.9,46h-4.1l7.5-17.9h4.1L75,46z M67.9,39l-2.6-6.6L62.6,39H67.9z"/>
		<path class="st0" d="M76.9,33.1h3.4V35c0.4-0.7,1-1.2,1.8-1.6c0.8-0.4,1.6-0.6,2.5-0.6c1.6,0,3,0.6,4.1,1.8
			c1.1,1.2,1.7,2.8,1.7,4.9c0,2.2-0.6,3.8-1.7,5c-1.1,1.2-2.5,1.8-4.1,1.8c-0.8,0-1.5-0.1-2.1-0.4c-0.6-0.3-1.3-0.8-2-1.5V51h-3.7
			V33.1z M80.5,39.3c0,1.5,0.3,2.5,0.9,3.2c0.6,0.7,1.4,1,2.3,1c0.9,0,1.6-0.3,2.1-1c0.6-0.6,0.8-1.7,0.8-3.1c0-1.4-0.3-2.4-0.9-3
			c-0.6-0.7-1.3-1-2.2-1c-0.9,0-1.6,0.3-2.2,1C80.8,37.1,80.5,38.1,80.5,39.3z"/>
		<path class="st0" d="M93.3,33.1h3.4V35c0.4-0.7,1-1.2,1.8-1.6c0.8-0.4,1.6-0.6,2.5-0.6c1.6,0,3,0.6,4.1,1.8
			c1.1,1.2,1.7,2.8,1.7,4.9c0,2.2-0.6,3.8-1.7,5c-1.1,1.2-2.5,1.8-4.1,1.8c-0.8,0-1.5-0.1-2.1-0.4c-0.6-0.3-1.3-0.8-2-1.5V51h-3.7
			V33.1z M96.9,39.3c0,1.5,0.3,2.5,0.9,3.2c0.6,0.7,1.4,1,2.3,1c0.9,0,1.6-0.3,2.1-1c0.6-0.6,0.8-1.7,0.8-3.1c0-1.4-0.3-2.4-0.9-3
			c-0.6-0.7-1.3-1-2.2-1c-0.9,0-1.6,0.3-2.2,1C97.2,37.1,96.9,38.1,96.9,39.3z"/>
		<path class="st0" d="M116.2,40.2l3.8-0.3c0.2,1.2,0.7,2,1.4,2.6s1.6,0.8,2.8,0.8c1.2,0,2.2-0.2,2.8-0.7c0.6-0.5,0.9-1.1,0.9-1.7
			c0-0.4-0.1-0.8-0.4-1.1s-0.7-0.6-1.4-0.8c-0.5-0.1-1.5-0.4-3.1-0.8c-2.1-0.5-3.5-1.1-4.4-1.8c-1.2-1-1.8-2.2-1.8-3.6
			c0-0.9,0.3-1.8,0.8-2.6c0.6-0.8,1.3-1.4,2.4-1.8c1-0.4,2.3-0.6,3.8-0.6c2.4,0,4.2,0.5,5.4,1.5c1.2,1,1.9,2.3,1.9,3.9l-3.9,0.2
			c-0.2-0.9-0.5-1.6-1.1-2c-0.5-0.4-1.4-0.6-2.4-0.6c-1.1,0-2,0.2-2.6,0.6c-0.4,0.3-0.6,0.6-0.6,1.1c0,0.4,0.2,0.8,0.6,1.1
			c0.5,0.4,1.7,0.8,3.6,1.2c1.9,0.4,3.3,0.8,4.2,1.3c0.9,0.4,1.6,1,2.1,1.8c0.5,0.8,0.8,1.7,0.8,2.8c0,1-0.3,2-0.9,2.9
			c-0.6,0.9-1.5,1.6-2.6,2c-1.1,0.4-2.5,0.7-4.2,0.7c-2.4,0-4.3-0.5-5.6-1.6C117.2,43.7,116.4,42.2,116.2,40.2z"/>
		<path class="st0" d="M141.3,33.1v2.7h-2.5V41c0,1.1,0,1.7,0.1,1.8s0.2,0.3,0.3,0.4c0.2,0.1,0.4,0.2,0.6,0.2c0.3,0,0.8-0.1,1.5-0.3
			l0.3,2.7c-0.9,0.3-1.8,0.5-2.9,0.5c-0.7,0-1.3-0.1-1.8-0.3c-0.5-0.2-0.9-0.5-1.2-0.8c-0.2-0.3-0.4-0.8-0.5-1.3
			c-0.1-0.4-0.1-1.2-0.1-2.4v-5.7h-1.7v-2.7h1.7v-2.6l3.7-2v4.6H141.3z"/>
		<path class="st0" d="M143,39.4c0-1.1,0.3-2.2,0.9-3.3c0.6-1.1,1.5-1.9,2.6-2.4c1.1-0.6,2.3-0.8,3.7-0.8c2.1,0,3.8,0.6,5.2,1.9
			c1.3,1.3,2,2.9,2,4.8c0,2-0.7,3.6-2,4.9c-1.4,1.3-3.1,1.9-5.1,1.9c-1.3,0-2.5-0.3-3.6-0.8c-1.2-0.5-2-1.3-2.6-2.4
			C143.3,42.1,143,40.9,143,39.4z M146.8,39.6c0,1.3,0.3,2.3,1,3s1.5,1,2.4,1s1.8-0.3,2.4-1s1-1.7,1-3c0-1.3-0.3-2.2-1-2.9
			s-1.5-1-2.4-1s-1.8,0.3-2.4,1S146.8,38.3,146.8,39.6z"/>
		<path class="st0" d="M163.7,46h-3.7v-13h3.4v1.8c0.6-0.9,1.1-1.4,1.6-1.7s1-0.4,1.6-0.4c0.8,0,1.6,0.2,2.4,0.6l-1.1,3
			c-0.6-0.4-1.2-0.6-1.7-0.6c-0.5,0-0.9,0.1-1.3,0.4c-0.4,0.3-0.6,0.7-0.8,1.4c-0.2,0.7-0.3,2.1-0.3,4.3V46z"/>
		<path class="st0" d="M178.7,41.9l3.7,0.6c-0.5,1.3-1.2,2.2-2.2,2.9s-2.3,1-3.8,1c-2.4,0-4.2-0.7-5.4-2.2c-0.9-1.2-1.4-2.7-1.4-4.5
			c0-2.1,0.6-3.8,1.8-5c1.2-1.2,2.7-1.8,4.6-1.8c2.1,0,3.7,0.6,4.9,1.9c1.2,1.3,1.8,3.2,1.7,5.9h-9.2c0,1,0.3,1.8,0.9,2.4
			c0.6,0.6,1.3,0.8,2.1,0.8c0.6,0,1.1-0.1,1.4-0.4C178.2,43,178.5,42.6,178.7,41.9z M178.9,38.4c0-1-0.3-1.7-0.8-2.3
			c-0.5-0.5-1.2-0.8-1.9-0.8c-0.8,0-1.5,0.3-2,0.8s-0.8,1.3-0.8,2.2H178.9z"/>
	</g>
	<g class="st1">
		<path class="st0" d="M69.8,17.8c0,0.5-0.1,0.9-0.2,1.3c-0.2,0.4-0.4,0.7-0.7,1s-0.6,0.5-1,0.7C67.5,20.9,67,21,66.6,21h-2.4v-6.3
			h2.4c0.5,0,0.9,0.1,1.3,0.2c0.4,0.2,0.7,0.4,1,0.7s0.5,0.6,0.7,1C69.7,16.9,69.8,17.4,69.8,17.8z M68.6,17.8c0-0.3,0-0.7-0.1-0.9
			s-0.2-0.5-0.4-0.7c-0.2-0.2-0.4-0.3-0.6-0.4c-0.2-0.1-0.5-0.2-0.8-0.2h-1.2v4.4h1.2c0.3,0,0.6-0.1,0.8-0.2
			c0.2-0.1,0.5-0.2,0.6-0.4c0.2-0.2,0.3-0.4,0.4-0.7S68.6,18.2,68.6,17.8z"/>
		<path class="st0" d="M76.7,17.8c0,0.5-0.1,0.9-0.2,1.3c-0.2,0.4-0.4,0.7-0.7,1c-0.3,0.3-0.6,0.5-1,0.7c-0.4,0.2-0.8,0.2-1.3,0.2
			c-0.5,0-0.9-0.1-1.3-0.2s-0.7-0.4-1-0.7c-0.3-0.3-0.5-0.6-0.7-1c-0.2-0.4-0.2-0.8-0.2-1.3c0-0.5,0.1-0.9,0.2-1.3
			c0.2-0.4,0.4-0.7,0.7-1c0.3-0.3,0.6-0.5,1-0.7s0.8-0.2,1.3-0.2c0.5,0,0.9,0.1,1.3,0.2c0.4,0.2,0.7,0.4,1,0.7
			c0.3,0.3,0.5,0.6,0.7,1C76.7,16.9,76.7,17.4,76.7,17.8z M75.5,17.8c0-0.3,0-0.7-0.1-0.9c-0.1-0.3-0.2-0.5-0.4-0.7
			c-0.2-0.2-0.4-0.3-0.6-0.4s-0.5-0.2-0.8-0.2s-0.6,0.1-0.8,0.2s-0.5,0.2-0.6,0.4c-0.2,0.2-0.3,0.4-0.4,0.7s-0.1,0.6-0.1,0.9
			c0,0.3,0,0.7,0.1,0.9s0.2,0.5,0.4,0.7c0.2,0.2,0.4,0.3,0.6,0.4s0.5,0.2,0.8,0.2s0.6-0.1,0.8-0.2s0.5-0.2,0.6-0.4
			c0.2-0.2,0.3-0.4,0.4-0.7C75.5,18.5,75.5,18.2,75.5,17.8z"/>
		<path class="st0" d="M77.1,14.7h1c0.1,0,0.2,0,0.3,0.1c0.1,0,0.1,0.1,0.1,0.2l1.1,3.8c0,0.1,0.1,0.2,0.1,0.3c0,0.1,0,0.2,0.1,0.3
			c0-0.1,0-0.2,0.1-0.3c0-0.1,0.1-0.2,0.1-0.3l1.2-3.8c0-0.1,0.1-0.1,0.1-0.2c0.1-0.1,0.2-0.1,0.3-0.1h0.3c0.1,0,0.2,0,0.3,0.1
			c0.1,0,0.1,0.1,0.1,0.2l1.2,3.8c0.1,0.2,0.1,0.4,0.2,0.6c0-0.1,0-0.2,0.1-0.3c0-0.1,0-0.2,0.1-0.3l1.1-3.8c0-0.1,0.1-0.1,0.1-0.2
			c0.1-0.1,0.2-0.1,0.3-0.1h0.9l-2,6.3h-1.1l-1.4-4.3c0-0.1,0-0.1-0.1-0.2s0-0.1-0.1-0.2c0,0.1,0,0.1-0.1,0.2s0,0.1-0.1,0.2L80.1,21
			h-1.1L77.1,14.7z"/>
		<path class="st0" d="M87.6,14.7C87.6,14.7,87.6,14.7,87.6,14.7c0.1,0,0.1,0.1,0.2,0.1c0,0,0.1,0.1,0.1,0.1l3.3,4.2
			c0-0.1,0-0.2,0-0.3s0-0.2,0-0.3v-3.8h1V21h-0.6c-0.1,0-0.2,0-0.2,0c-0.1,0-0.1-0.1-0.2-0.2l-3.3-4.2c0,0.1,0,0.2,0,0.3
			c0,0.1,0,0.2,0,0.3V21h-1v-6.3h0.6C87.5,14.7,87.5,14.7,87.6,14.7z"/>
		<path class="st0" d="M94.6,20h2.5v1h-3.7v-6.3h1.2V20z"/>
		<path class="st0" d="M103.7,17.8c0,0.5-0.1,0.9-0.2,1.3c-0.2,0.4-0.4,0.7-0.7,1c-0.3,0.3-0.6,0.5-1,0.7s-0.8,0.2-1.3,0.2
			c-0.5,0-0.9-0.1-1.3-0.2s-0.7-0.4-1-0.7c-0.3-0.3-0.5-0.6-0.7-1c-0.2-0.4-0.2-0.8-0.2-1.3c0-0.5,0.1-0.9,0.2-1.3
			c0.2-0.4,0.4-0.7,0.7-1c0.3-0.3,0.6-0.5,1-0.7s0.8-0.2,1.3-0.2c0.5,0,0.9,0.1,1.3,0.2c0.4,0.2,0.7,0.4,1,0.7
			c0.3,0.3,0.5,0.6,0.7,1C103.6,16.9,103.7,17.4,103.7,17.8z M102.5,17.8c0-0.3,0-0.7-0.1-0.9s-0.2-0.5-0.4-0.7
			c-0.2-0.2-0.4-0.3-0.6-0.4s-0.5-0.2-0.8-0.2c-0.3,0-0.6,0.1-0.8,0.2S99.2,16,99,16.2c-0.2,0.2-0.3,0.4-0.4,0.7s-0.1,0.6-0.1,0.9
			c0,0.3,0,0.7,0.1,0.9s0.2,0.5,0.4,0.7c0.2,0.2,0.4,0.3,0.6,0.4s0.5,0.2,0.8,0.2c0.3,0,0.6-0.1,0.8-0.2s0.5-0.2,0.6-0.4
			c0.2-0.2,0.3-0.4,0.4-0.7S102.5,18.2,102.5,17.8z"/>
		<path class="st0" d="M110,21H109c-0.1,0-0.2,0-0.3-0.1c-0.1-0.1-0.1-0.1-0.1-0.2l-0.5-1.3h-2.6l-0.5,1.3c0,0.1-0.1,0.1-0.1,0.2
			c-0.1,0.1-0.2,0.1-0.3,0.1h-0.9l2.5-6.3h1.2L110,21z M105.9,18.6h2l-0.8-2.1c0-0.1-0.1-0.2-0.1-0.3c0-0.1-0.1-0.3-0.1-0.4
			c0,0.1-0.1,0.3-0.1,0.4c0,0.1-0.1,0.2-0.1,0.3L105.9,18.6z"/>
		<path class="st0" d="M116.2,17.8c0,0.5-0.1,0.9-0.2,1.3c-0.2,0.4-0.4,0.7-0.7,1s-0.6,0.5-1,0.7S113.5,21,113,21h-2.4v-6.3h2.4
			c0.5,0,0.9,0.1,1.3,0.2s0.7,0.4,1,0.7s0.5,0.6,0.7,1C116.1,16.9,116.2,17.4,116.2,17.8z M115,17.8c0-0.3,0-0.7-0.1-0.9
			c-0.1-0.3-0.2-0.5-0.4-0.7c-0.2-0.2-0.4-0.3-0.6-0.4s-0.5-0.2-0.8-0.2h-1.2v4.4h1.2c0.3,0,0.6-0.1,0.8-0.2s0.5-0.2,0.6-0.4
			c0.2-0.2,0.3-0.4,0.4-0.7C115,18.5,115,18.2,115,17.8z"/>
		<path class="st0" d="M124.9,17.8c0,0.5-0.1,0.9-0.2,1.3c-0.2,0.4-0.4,0.7-0.7,1c-0.3,0.3-0.6,0.5-1,0.7c-0.4,0.2-0.8,0.2-1.3,0.2
			s-0.9-0.1-1.3-0.2c-0.4-0.2-0.7-0.4-1-0.7s-0.5-0.6-0.7-1c-0.2-0.4-0.2-0.8-0.2-1.3c0-0.5,0.1-0.9,0.2-1.3c0.2-0.4,0.4-0.7,0.7-1
			s0.6-0.5,1-0.7c0.4-0.2,0.8-0.2,1.3-0.2s0.9,0.1,1.3,0.2c0.4,0.2,0.7,0.4,1,0.7c0.3,0.3,0.5,0.6,0.7,1
			C124.8,16.9,124.9,17.4,124.9,17.8z M123.7,17.8c0-0.3,0-0.7-0.1-0.9s-0.2-0.5-0.4-0.7c-0.2-0.2-0.4-0.3-0.6-0.4
			c-0.2-0.1-0.5-0.2-0.8-0.2c-0.3,0-0.6,0.1-0.8,0.2c-0.2,0.1-0.5,0.2-0.6,0.4c-0.2,0.2-0.3,0.4-0.4,0.7c-0.1,0.3-0.1,0.6-0.1,0.9
			c0,0.3,0,0.7,0.1,0.9c0.1,0.3,0.2,0.5,0.4,0.7c0.2,0.2,0.4,0.3,0.6,0.4c0.2,0.1,0.5,0.2,0.8,0.2c0.3,0,0.6-0.1,0.8-0.2
			c0.2-0.1,0.5-0.2,0.6-0.4c0.2-0.2,0.3-0.4,0.4-0.7S123.7,18.2,123.7,17.8z"/>
		<path class="st0" d="M126.6,14.7C126.6,14.7,126.6,14.7,126.6,14.7c0.1,0,0.1,0.1,0.2,0.1c0,0,0.1,0.1,0.1,0.1l3.3,4.2
			c0-0.1,0-0.2,0-0.3c0-0.1,0-0.2,0-0.3v-3.8h1V21h-0.6c-0.1,0-0.2,0-0.2,0c-0.1,0-0.1-0.1-0.2-0.2l-3.3-4.2c0,0.1,0,0.2,0,0.3
			c0,0.1,0,0.2,0,0.3V21h-1v-6.3h0.6C126.5,14.7,126.5,14.7,126.6,14.7z"/>
		<path class="st0" d="M138.6,14.7v1h-1.9V21h-1.2v-5.3h-1.9v-1H138.6z"/>
		<path class="st0" d="M144.7,21h-1.2v-2.8h-3V21h-1.2v-6.3h1.2v2.7h3v-2.7h1.2V21z"/>
		<path class="st0" d="M149.9,14.7v0.9h-2.8v1.8h2.2v0.9h-2.2V20h2.8V21h-4v-6.3H149.9z"/>
	</g>
</g>
</svg>
