<?xml version="1.0" encoding="utf-8"?>
<!-- Generator: Adobe Illustrator 23.1.0, SVG Export Plug-In . SVG Version: 6.00 Build 0)  -->
<svg version="1.1" id="Layer_1" xmlns="http://www.w3.org/2000/svg" xmlns:xlink="http://www.w3.org/1999/xlink" x="0px" y="0px"
	 viewBox="0 0 62 65" style="enable-background:new 0 0 62 65;" xml:space="preserve">
<style type="text/css">
	.st0{fill:#2A6CB5;}
	.st1{fill:#F8CFAA;}
	.st2{fill:#FBBC8D;}
	.st3{fill:#FBFBFB;stroke:#000000;stroke-miterlimit:10;}
	.st4{fill:url(#SVGID_1_);}
	.st5{fill:url(#SVGID_2_);}
	.st6{fill:url(#SVGID_3_);}
</style>
<g>
	<ellipse class="st0" cx="31" cy="33.1" rx="31" ry="31.9"/>
	<g>
		<path class="st1" d="M44.5,15.9v8c0,1,0.3,2,0.8,2.9c1.4,2.3,4.2,7.8,3.2,12.8c0,0-1.7,7.1,0.2,13.3l0.9,4.7c0,0-2.3,5.8-15.4,7.1
			l-5.4-4.4l-2.4-1.2c-0.3-0.1-1.7-0.8-2-1l-2-2l-3.2-3.6l6.7-5.3l8.2-8.2l1.5-13.2l-0.2-8.5l3.7-1.4C39,15.9,41.9,11.3,44.5,15.9z"
			/>
		<path class="st2" d="M24.6,58.5c0,0,15.1,3.9,23.3-9.4l2.2,9.1c0,0-5.1,6.1-16.8,6.7C33.3,64.9,32,62.2,24.6,58.5z"/>
	</g>
	<path class="st1" d="M10.3,21.7l-5.4-5.8c0,0-2.3-5.3,4.5-2l1.8,0.9l0.8,6.9H10.3z"/>
	<g>
		<path class="st3" d="M36,52.2H13.1c-1.2,0-2.3-1-2.3-2.3v-47c0-1.2,1-2.3,2.3-2.3H36c1.2,0,2.3,1,2.3,2.3v47.1
			C38.3,51.2,37.3,52.2,36,52.2z"/>
		
			<linearGradient id="SVGID_1_" gradientUnits="userSpaceOnUse" x1="18.1521" y1="58.2264" x2="38.3104" y2="58.2264" gradientTransform="matrix(1 0 0 -1 0 64.991)">
			<stop  offset="0" style="stop-color:#2769AC"/>
			<stop  offset="1" style="stop-color:#4B82BA"/>
		</linearGradient>
		<path class="st4" d="M18.2,0.2l12.9,13.2l7.3-6.6V2.7c0-1.4-1.1-2.6-2.6-2.6H18.2V0.2z"/>
		
			<linearGradient id="SVGID_2_" gradientUnits="userSpaceOnUse" x1="11.0786" y1="17.2319" x2="27.0744" y2="17.2319" gradientTransform="matrix(1 0 0 -1 0 64.991)">
			<stop  offset="0" style="stop-color:#2265AA"/>
			<stop  offset="1" style="stop-color:#4B82BA"/>
		</linearGradient>
		<path class="st5" d="M18.2,43.3l8.9,8.5l-13.6,0.3c-1.3,0-2.4-1-2.4-2.3v-1.7L18.2,43.3z"/>
		<g>
			
				<linearGradient id="SVGID_3_" gradientUnits="userSpaceOnUse" x1="10.3598" y1="38.6447" x2="38.8185" y2="38.6447" gradientTransform="matrix(1 0 0 -1 0 64.991)">
				<stop  offset="0" style="stop-color:#000000"/>
				<stop  offset="0.4545" style="stop-color:#4D4D4D"/>
				<stop  offset="0.5283" style="stop-color:#3E3E3E"/>
				<stop  offset="0.7268" style="stop-color:#1C1C1C"/>
				<stop  offset="0.8912" style="stop-color:#080808"/>
				<stop  offset="1" style="stop-color:#000000"/>
			</linearGradient>
			<path class="st6" d="M36,52.7H13.1c-1.5,0-2.8-1.2-2.8-2.8v-47c0-1.5,1.2-2.8,2.8-2.8H36c1.5,0,2.8,1.2,2.8,2.8v47.1
				C38.8,51.5,37.6,52.7,36,52.7z M13.1,1c-1,0-1.8,0.8-1.8,1.8v47.1c0,1,0.8,1.8,1.8,1.8H36c1,0,1.8-0.8,1.8-1.8V2.8
				C37.8,1.8,37,1,36,1H13.1z"/>
		</g>
	</g>
	<g>
		<path class="st1" d="M5.9,31.9c0,0,2.6,3.3,5.2,5.8c0,0,4.8,1.1,3.4-3.9l-5.8-4.6c-0.7-0.5-1.6-0.5-2.2,0
			C5.7,29.9,5,30.8,5.9,31.9z"/>
		<path class="st2" d="M9,35.6c0,0,2.5,0.5,2.8-0.7c0.3-1.2,0.4-2.6,0.4-2.6s3.9,1.5,2.6,4.4c-0.3,0.6-0.4,0.8-0.4,0.8
			S11.7,40.1,9,35.6z"/>
	</g>
	<g>
		<path class="st1" d="M6,24.2c0,0,2.6,3.3,5.2,5.8c0,0,4.8,1.1,3.4-3.9l-5.8-4.6c-0.7-0.5-1.6-0.5-2.2,0C5.7,22.2,5,23.1,6,24.2z"
			/>
		<path class="st2" d="M9,27.9c0,0,2.5,0.5,2.8-0.7c0.3-1.2,0.4-2.6,0.4-2.6s3.9,1.5,2.6,4.4c-0.3,0.6-0.4,0.8-0.4,0.8
			S11.8,32.3,9,27.9z"/>
	</g>
	<g>
		<path class="st1" d="M6,39.3c0,0,2.6,3.3,5.2,5.8c0,0,4.8,1.1,3.4-3.9l-5.8-4.6c-0.7-0.5-1.6-0.5-2.2,0C5.7,37.2,5,38.1,6,39.3z"
			/>
		<path class="st2" d="M9,42.9c0,0,2.5,0.5,2.8-0.7c0.3-1.2,0.4-2.6,0.4-2.6s3.9,1.5,2.6,4.4c-0.3,0.6-0.4,0.8-0.4,0.8
			S11.8,47.4,9,42.9z"/>
	</g>
	
		<image style="overflow:visible;enable-background:new    ;" width="3405" height="1963" xlink:href="../../../Done Work/1. Social Media Banner Design/Black &amp; Blue otobucks logo.png"  transform="matrix(6.343808e-03 0 0 6.079274e-03 14.2903 18.4312)">
	</image>
</g>
</svg>
