<?xml version="1.0" encoding="utf-8"?>
<!-- Generator: Adobe Illustrator 23.1.0, SVG Export Plug-In . SVG Version: 6.00 Build 0)  -->
<svg version="1.1" id="Layer_1" xmlns="http://www.w3.org/2000/svg" xmlns:xlink="http://www.w3.org/1999/xlink" x="0px" y="0px"
	 viewBox="0 0 201.4 60" style="enable-background:new 0 0 201.4 60;" xml:space="preserve">
<style type="text/css">
	.st0{stroke:#C4C4C4;stroke-width:0.5;stroke-miterlimit:10;}
	.st1{fill:#01EE6D;}
	.st2{fill:#FB3147;}
	.st3{fill:#03E1FE;}
	.st4{fill:#FEC300;}
	.st5{opacity:0.9;enable-background:new    ;}
	.st6{fill:#FFFFFF;}
	.st7{enable-background:new    ;}
</style>
<g>
	<path class="st0" d="M195.2,59.8H6.2c-3.3,0-6-2.8-6-6.4V6.7c0-3.6,2.6-6.4,6-6.4h189c3.3,0,6,2.8,6,6.4v46.6
		C201.2,56.9,198.6,59.8,195.2,59.8z"/>
	<g>
		<path class="st1" d="M42.2,22.9c-4-2.4-8-4.9-12-7.3c-1.5-0.9-2.9-1.9-4.5-2.7c-1.2-0.7-2.3-1.4-3.4-2.1c-1.1-0.7-2.1-1.4-3.3-1.9
			c-0.3,0-0.6,0-0.9,0c-0.4,0.2-0.8,0.3-1,0.7c0.7,0.8,1.3,1.4,2,2.2c1.2,1.3,2.4,2.6,3.8,4c0.1,0.1,0.2,0.2,0.3,0.3
			c0.9-1,1.7-1.9,2.6-2.8c-0.9,1-1.7,1.9-2.6,2.8c0.1,0.1,0.2,0.2,0.3,0.3c4.2,4.5,8.2,8.8,12.4,13.3c0.1,0.1,0.2,0.2,0.3,0.3
			c0,0,0,0,0.1,0c1.5-1.6,3-3.4,4.7-5c0.3-0.3,0.6-0.7,1-1c0.3-0.3,0.5-0.7,0.8-0.9C42.3,23,42.3,23,42.2,22.9z"/>
		<path class="st2" d="M41.7,36.2c-0.5-0.5-1-1-1.5-1.5c-1.4-1.5-2.8-3.1-4.3-4.6c0,0,0,0-0.1,0c-0.5,0.7-1.1,1.2-1.6,1.7
			c-0.5,0.4-0.8,1-1.3,1.4c-0.2,0.2-0.4,0.3-0.5,0.5c-0.7,0.8-1.3,1.5-2,2.2c-0.1,0.1-0.2,0.2-0.3,0.4l0,0c-0.9,1-1.9,2.1-2.8,3.1
			c-0.1,0.1-0.2,0.2-0.4,0.3c-0.8,0.9-1.6,1.7-2.4,2.6c-0.1,0.1-0.2,0.2-0.3,0.3c-0.7,0.8-1.4,1.5-2.1,2.3c-0.9,1-1.9,2.1-2.8,3.1
			c-0.7,0.8-1.5,1.6-2.2,2.4c0.2,0.3,0.6,0.4,0.9,0.7c0.3,0,0.7,0,1,0c0.7-0.2,1.4-0.7,2.1-1.1c0.5-0.3,0.9-0.7,1.4-0.9
			c1.6-1,3.2-1.9,4.8-2.9c0.2,0,0.3-0.1,0.4-0.2c1.2-0.8,2.3-1.5,3.5-2.2c1.2-0.8,2.4-1.4,3.6-2.3c1.3-0.8,2.5-1.6,3.9-2.4
			s2.5-1.5,3.8-2.3C42.2,36.7,41.9,36.4,41.7,36.2z"/>
		<path class="st3" d="M35.7,29.7c-4.2-4.5-8.2-8.8-12.4-13.3c-0.1-0.1-0.2-0.2-0.3-0.3c-0.1-0.1-0.2-0.2-0.3-0.3
			c-1.2-1.3-2.4-2.6-3.8-4c-0.7-0.8-1.3-1.4-2-2.2c-0.2,0.2-0.3,0.4-0.4,0.7c-0.3,0.8-0.4,1.6-0.3,2.4c0,1.3,0,2.7,0,4
			c0,1.4,0,2.8,0,4.3l0,0c0,2.5,0,4.9,0,7.4c0,1.5,0,2.9,0,4.5c0,2.1,0,4.2,0,6.2c0,3.2,0,6.3,0,9.5c0,0.8,0.2,1.4,0.7,2.1
			c0.7-0.8,1.5-1.6,2.2-2.4c0.9-1,1.9-2.1,2.8-3.1c0.7-0.8,1.4-1.5,2.1-2.3c0.1-0.1,0.2-0.2,0.3-0.3c0.8-0.9,1.6-1.7,2.4-2.6
			c0.1-0.1,0.2-0.2,0.4-0.3c0.9-1,1.9-2.1,2.8-3.1c0.1-0.1,0.2-0.2,0.3-0.4c-0.1-0.1-0.2-0.2-0.2-0.3c-4.5-4.8-8.9-9.6-13.4-14.4
			c0,0,0,0-0.1-0.1l0.1,0.1c4.5,4.8,8.9,9.6,13.4,14.4c0.1,0.1,0.2,0.2,0.2,0.3c0.7-0.8,1.4-1.4,2-2.2c0.2-0.2,0.4-0.3,0.5-0.5
			c0.4-0.4,0.8-1.1,1.3-1.4c0.6-0.5,1.1-1.2,1.6-1.7C35.9,30,35.8,29.8,35.7,29.7z"/>
		<path class="st4" d="M50.5,28.1c-0.5-0.4-1.1-0.8-1.7-1.1c-1.5-1-3.1-1.9-4.7-2.8c-0.6-0.3-1.2-0.8-1.7-1.1
			c-0.3,0.3-0.5,0.7-0.8,0.9c-0.3,0.3-0.7,0.7-1,1c-1.5,1.6-3,3.4-4.7,5c1.4,1.5,2.8,3.1,4.3,4.6c0.5,0.5,1,1.1,1.5,1.5
			c0.2,0.3,0.5,0.5,0.7,0.9c0.6-0.3,1.2-0.8,1.7-1.1c0.2-0.1,0.3-0.2,0.5-0.2c1.7-1,3.3-2.1,5.1-3.1c0.3-0.2,0.6-0.3,0.8-0.5
			C51.9,30.8,51.9,29.2,50.5,28.1z"/>
	</g>
	<g class="st5">
		<path class="st6" d="M67.8,18.8c0.4,0,0.7,0,1-0.1c0.3-0.1,0.6-0.2,0.8-0.3v-1.9h-1.2c-0.1,0-0.2,0-0.3-0.1
			c-0.1-0.1-0.1-0.2-0.1-0.3V15h3.1v4.2c-0.2,0.2-0.5,0.4-0.7,0.5c-0.3,0.1-0.5,0.3-0.8,0.3c-0.3,0.1-0.6,0.2-0.9,0.2
			c-0.3,0-0.7,0.1-1.1,0.1c-0.7,0-1.3-0.1-1.9-0.4c-0.6-0.3-1.1-0.6-1.5-1.1c-0.4-0.5-0.7-1-1-1.7c-0.2-0.6-0.3-1.4-0.3-2.1
			c0-0.8,0.1-1.5,0.3-2.1c0.2-0.6,0.5-1.2,1-1.7c0.4-0.5,0.9-0.8,1.5-1.1c0.6-0.3,1.3-0.4,2-0.4c0.8,0,1.4,0.1,2,0.4
			c0.6,0.3,1,0.6,1.4,1L70.7,12c-0.1,0.2-0.2,0.3-0.4,0.3c-0.1,0-0.2,0-0.3-0.1c-0.1-0.1-0.3-0.2-0.4-0.3c-0.1-0.1-0.3-0.2-0.5-0.2
			c-0.2-0.1-0.4-0.1-0.6-0.2c-0.2,0-0.5-0.1-0.7-0.1c-0.5,0-0.9,0.1-1.2,0.3c-0.4,0.2-0.7,0.4-0.9,0.7c-0.3,0.3-0.5,0.7-0.6,1.2
			c-0.1,0.4-0.2,0.9-0.2,1.5c0,0.6,0.1,1.1,0.2,1.6c0.1,0.5,0.4,0.9,0.6,1.2c0.3,0.3,0.6,0.6,1,0.7S67.4,18.8,67.8,18.8z"/>
		<path class="st6" d="M78.7,9.9v1.5h-4.1v2.9h3.2v1.5h-3.2v2.9h4.1v1.5h-5.8V9.9H78.7z"/>
		<path class="st6" d="M86.7,9.9v1.6h-2.8v8.8h-1.7v-8.8h-2.8V9.9H86.7z"/>
		<path class="st6" d="M92.2,20.2h-1.7V9.9h1.7V20.2z"/>
		<path class="st6" d="M100.8,9.9v1.6H98v8.8h-1.7v-8.8h-2.8V9.9H100.8z"/>
		<path class="st6" d="M113.2,15.1c0,0.8-0.1,1.5-0.3,2.1c-0.2,0.6-0.5,1.2-1,1.7c-0.4,0.5-0.9,0.8-1.5,1.1
			c-0.6,0.3-1.2,0.4-1.9,0.4s-1.3-0.1-1.9-0.4c-0.6-0.3-1.1-0.6-1.5-1.1c-0.4-0.5-0.7-1-1-1.7c-0.2-0.6-0.3-1.3-0.3-2.1
			c0-0.8,0.1-1.5,0.3-2.1c0.2-0.6,0.5-1.2,1-1.7c0.4-0.5,0.9-0.8,1.5-1.1c0.6-0.3,1.2-0.4,1.9-0.4s1.3,0.1,1.9,0.4
			c0.6,0.3,1.1,0.6,1.5,1.1c0.4,0.5,0.7,1,1,1.7C113.1,13.6,113.2,14.3,113.2,15.1z M111.4,15.1c0-0.6-0.1-1.1-0.2-1.5
			c-0.1-0.5-0.3-0.8-0.6-1.1c-0.3-0.3-0.6-0.6-0.9-0.7c-0.4-0.2-0.8-0.3-1.2-0.3c-0.5,0-0.9,0.1-1.2,0.3c-0.4,0.2-0.7,0.4-0.9,0.7
			c-0.3,0.3-0.4,0.7-0.6,1.1c-0.1,0.5-0.2,1-0.2,1.5c0,0.6,0.1,1.1,0.2,1.5c0.1,0.5,0.3,0.8,0.6,1.1c0.3,0.3,0.6,0.6,0.9,0.7
			c0.4,0.2,0.8,0.3,1.2,0.3c0.5,0,0.9-0.1,1.2-0.3c0.4-0.2,0.7-0.4,0.9-0.7c0.3-0.3,0.4-0.7,0.6-1.1
			C111.4,16.1,111.4,15.6,111.4,15.1z"/>
		<path class="st6" d="M115.7,9.9c0.1,0,0.1,0,0.1,0c0,0,0.1,0.1,0.1,0.1c0,0,0.1,0.1,0.1,0.2l4.9,6.9c0-0.2,0-0.3,0-0.5
			c0-0.2,0-0.3,0-0.4V9.9h1.5v10.4h-0.9c-0.1,0-0.2,0-0.3-0.1c-0.1,0-0.2-0.1-0.3-0.3L116,13c0,0.2,0,0.3,0,0.5c0,0.2,0,0.3,0,0.4
			v6.4h-1.5V9.9h0.9C115.5,9.9,115.6,9.9,115.7,9.9z"/>
	</g>
	<g class="st7">
		<path class="st6" d="M69.4,40.1v-2.8h6.9v6.7c-0.7,0.7-1.7,1.3-2.9,1.8c-1.3,0.5-2.6,0.8-3.9,0.8c-1.7,0-3.1-0.4-4.4-1.1
			c-1.2-0.7-2.2-1.8-2.8-3.2c-0.6-1.4-0.9-2.9-0.9-4.5c0-1.7,0.3-3.3,1-4.7s1.7-2.4,3.1-3.1c1-0.6,2.3-0.8,3.8-0.8
			c2,0,3.5,0.4,4.6,1.3c1.1,0.9,1.8,2.1,2.2,3.6L73,34.7c-0.2-0.8-0.6-1.5-1.3-1.9c-0.6-0.5-1.4-0.7-2.3-0.7c-1.4,0-2.5,0.5-3.4,1.4
			c-0.8,0.9-1.2,2.3-1.2,4.2c0,2,0.4,3.5,1.3,4.5c0.8,1,1.9,1.5,3.3,1.5c0.7,0,1.4-0.1,2-0.4c0.7-0.3,1.3-0.6,1.7-1v-2.1H69.4z"/>
		<path class="st6" d="M78.6,40c0-1.1,0.3-2.1,0.8-3.1c0.5-1,1.2-1.8,2.1-2.3c0.9-0.5,1.9-0.8,3.1-0.8c1.7,0,3.2,0.6,4.3,1.8
			c1.1,1.2,1.7,2.7,1.7,4.5c0,1.8-0.6,3.4-1.7,4.6c-1.1,1.2-2.6,1.8-4.3,1.8c-1.1,0-2.1-0.3-3-0.8c-1-0.5-1.7-1.2-2.2-2.2
			C78.9,42.6,78.6,41.4,78.6,40z M81.8,40.1c0,1.2,0.3,2.1,0.8,2.8c0.5,0.6,1.2,1,2,1c0.8,0,1.5-0.3,2-1c0.5-0.6,0.8-1.6,0.8-2.8
			c0-1.2-0.3-2.1-0.8-2.7c-0.5-0.6-1.2-1-2-1c-0.8,0-1.5,0.3-2,1S81.8,38.9,81.8,40.1z"/>
		<path class="st6" d="M92.3,40c0-1.1,0.3-2.1,0.8-3.1s1.2-1.8,2.1-2.3c0.9-0.5,1.9-0.8,3.1-0.8c1.7,0,3.2,0.6,4.3,1.8
			c1.1,1.2,1.7,2.7,1.7,4.5c0,1.8-0.6,3.4-1.7,4.6c-1.1,1.2-2.6,1.8-4.3,1.8c-1.1,0-2.1-0.3-3-0.8c-1-0.5-1.7-1.2-2.2-2.2
			C92.5,42.6,92.3,41.4,92.3,40z M95.4,40.1c0,1.2,0.3,2.1,0.8,2.8c0.5,0.6,1.2,1,2,1c0.8,0,1.5-0.3,2-1c0.5-0.6,0.8-1.6,0.8-2.8
			c0-1.2-0.3-2.1-0.8-2.7c-0.5-0.6-1.2-1-2-1c-0.8,0-1.5,0.3-2,1S95.4,38.9,95.4,40.1z"/>
		<path class="st6" d="M106.3,47l3.5,0.4c0.1,0.4,0.2,0.7,0.4,0.9c0.3,0.2,0.7,0.3,1.4,0.3c0.8,0,1.4-0.1,1.8-0.4
			c0.3-0.2,0.5-0.4,0.6-0.8c0.1-0.3,0.1-0.8,0.1-1.5v-1.8c-0.9,1.3-2.1,2-3.5,2c-1.6,0-2.8-0.7-3.7-2.1c-0.7-1.1-1.1-2.4-1.1-4.1
			c0-2,0.5-3.6,1.4-4.7c0.9-1.1,2.1-1.6,3.5-1.6c1.4,0,2.6,0.7,3.5,2v-1.7h2.9V45c0,1.4-0.1,2.5-0.3,3.2c-0.2,0.7-0.5,1.3-0.9,1.7
			c-0.4,0.4-0.9,0.7-1.6,0.9c-0.7,0.2-1.5,0.3-2.6,0.3c-2,0-3.4-0.4-4.2-1.1c-0.8-0.7-1.2-1.6-1.2-2.7
			C106.3,47.3,106.3,47.2,106.3,47z M109,39.9c0,1.3,0.2,2.2,0.7,2.8c0.5,0.6,1.1,0.9,1.8,0.9c0.7,0,1.4-0.3,1.9-0.9
			c0.5-0.6,0.8-1.5,0.8-2.7c0-1.3-0.2-2.2-0.7-2.8s-1.1-0.9-1.9-0.9c-0.7,0-1.3,0.3-1.8,0.9C109.3,37.8,109,38.7,109,39.9z"/>
		<path class="st6" d="M120.2,46.2V29.5h3.1v16.8H120.2z"/>
		<path class="st6" d="M133.1,42.4l3,0.5c-0.4,1.2-1,2.1-1.9,2.7c-0.8,0.6-1.9,0.9-3.2,0.9c-2,0-3.5-0.7-4.5-2.1
			c-0.8-1.1-1.1-2.5-1.1-4.2c0-2,0.5-3.6,1.5-4.7c1-1.1,2.3-1.7,3.8-1.7c1.7,0,3.1,0.6,4.1,1.8c1,1.2,1.5,3,1.4,5.5h-7.7
			c0,1,0.3,1.7,0.7,2.2c0.5,0.5,1.1,0.8,1.8,0.8c0.5,0,0.9-0.1,1.2-0.4C132.7,43.4,132.9,43,133.1,42.4z M133.3,39.1
			c0-0.9-0.3-1.6-0.7-2.1c-0.4-0.5-1-0.7-1.6-0.7c-0.7,0-1.2,0.3-1.7,0.8c-0.4,0.5-0.6,1.2-0.6,2.1H133.3z"/>
		<path class="st6" d="M145,46.2V29.5h5.2c2,0,3.2,0.1,3.8,0.3c0.9,0.3,1.7,0.8,2.3,1.6c0.6,0.8,0.9,1.9,0.9,3.3
			c0,1-0.2,1.9-0.5,2.6s-0.8,1.3-1.4,1.7c-0.5,0.4-1.1,0.7-1.7,0.8c-0.8,0.2-1.9,0.2-3.3,0.2h-2.1v6.3H145z M148.3,32.3V37h1.8
			c1.3,0,2.1-0.1,2.5-0.3c0.4-0.2,0.8-0.5,1-0.8c0.2-0.4,0.4-0.8,0.4-1.3c0-0.6-0.2-1.1-0.5-1.5c-0.3-0.4-0.8-0.6-1.3-0.7
			c-0.4-0.1-1.2-0.1-2.3-0.1H148.3z"/>
		<path class="st6" d="M159.9,46.2V29.5h3.1v16.8H159.9z"/>
		<path class="st6" d="M168.4,37.8l-2.8-0.5c0.3-1.2,0.8-2,1.6-2.6c0.8-0.6,1.9-0.8,3.4-0.8c1.4,0,2.4,0.2,3,0.5
			c0.7,0.3,1.1,0.8,1.4,1.3c0.3,0.5,0.4,1.5,0.4,2.9l0,3.8c0,1.1,0,1.9,0.1,2.4c0.1,0.5,0.3,1.1,0.5,1.6h-3
			c-0.1-0.2-0.2-0.5-0.3-0.9c-0.1-0.2-0.1-0.3-0.1-0.4c-0.5,0.5-1.1,0.9-1.7,1.2c-0.6,0.3-1.2,0.4-1.9,0.4c-1.2,0-2.1-0.3-2.8-1
			c-0.7-0.7-1-1.5-1-2.6c0-0.7,0.2-1.3,0.5-1.8c0.3-0.5,0.7-0.9,1.3-1.2c0.6-0.3,1.4-0.5,2.4-0.7c1.4-0.3,2.4-0.5,3-0.8V38
			c0-0.6-0.1-1.1-0.4-1.3c-0.3-0.3-0.8-0.4-1.6-0.4c-0.5,0-1,0.1-1.3,0.3C168.8,36.8,168.6,37.2,168.4,37.8z M172.5,40.4
			c-0.4,0.1-1,0.3-1.9,0.5c-0.8,0.2-1.4,0.4-1.7,0.6c-0.4,0.3-0.6,0.7-0.6,1.1c0,0.5,0.2,0.8,0.5,1.2c0.3,0.3,0.7,0.5,1.2,0.5
			c0.6,0,1.1-0.2,1.6-0.6c0.4-0.3,0.6-0.6,0.7-1.1c0.1-0.3,0.1-0.8,0.1-1.6V40.4z"/>
		<path class="st6" d="M177,34.1h3.3l2.8,8.6l2.7-8.6h3.2l-4.1,11.7l-0.7,2.1c-0.3,0.7-0.5,1.3-0.8,1.6c-0.2,0.4-0.5,0.7-0.8,0.9
			c-0.3,0.2-0.7,0.4-1.2,0.5c-0.5,0.1-1,0.2-1.6,0.2c-0.6,0-1.2-0.1-1.7-0.2l-0.3-2.5c0.5,0.1,0.9,0.1,1.3,0.1
			c0.7,0,1.2-0.2,1.6-0.7c0.3-0.4,0.6-1,0.8-1.7L177,34.1z"/>
	</g>
</g>
</svg>
